<svg width="175" height="29" viewBox="0 0 175 29" fill="none" xmlns="http://www.w3.org/2000/svg">
<g clip-path="url(#clip0_32908_36884)">
<path d="M19.4674 6.981H20.1639C20.4584 6.981 20.6971 6.74231 20.6971 6.44787V0.53313C20.6971 0.23869 20.4584 0 20.1639 0H8.3844C8.08996 0 7.85126 0.238691 7.85126 0.53313V7.45142C7.85126 7.67225 7.67225 7.85126 7.45142 7.85126H0.533131C0.238691 7.85126 0 8.08996 0 8.38439V20.1639C0 20.4584 0.23869 20.6971 0.53313 20.6971H9.08097C9.49721 20.6971 9.89447 20.6781 10.3107 20.6403C10.6134 20.6025 10.8972 20.5646 11.181 20.5079C15.7532 19.6666 19.4061 16.1556 20.4133 11.6498C20.4677 11.4067 20.2788 11.181 20.0296 11.181H19.4674C19.0435 11.181 18.6327 11.207 18.2241 11.2699C18.0704 11.2936 17.9494 11.4103 17.9073 11.5601C17.0271 14.6979 14.4843 17.1799 11.2945 17.9728C10.9918 18.0484 10.6891 18.1052 10.3864 18.162C9.95124 18.2187 9.51612 18.2566 9.06206 18.2566H2.84036C2.61953 18.2566 2.44051 18.0775 2.44051 17.8567V10.7106C2.44051 10.4897 2.61953 10.3107 2.84036 10.3107H9.75864C10.0531 10.3107 10.2918 10.072 10.2918 9.77758V2.84036C10.2918 2.61953 10.4708 2.44051 10.6916 2.44051H17.8378C18.0586 2.44051 18.2376 2.61953 18.2376 2.84036V6.45395C18.2376 6.76745 18.5068 7.01208 18.82 6.99674C19.0342 6.98625 19.2482 6.981 19.4674 6.981Z" fill="url(#paint0_linear_32908_36884)"/>
<path d="M19.467 7.85132C19.0508 7.85132 18.6535 7.87023 18.2373 7.90808C17.9346 7.94591 17.6508 7.98376 17.3671 8.04049C12.7948 8.88179 9.14192 12.3928 8.13468 16.8986C8.08032 17.1417 8.26919 17.3674 8.51837 17.3674H9.08065C9.47794 17.3674 9.87524 17.3296 10.2725 17.2729C10.3671 17.2539 10.4806 17.235 10.5752 17.2161C11.3887 13.9431 13.9806 11.3702 17.2535 10.5567C17.5562 10.481 17.8589 10.4243 18.1616 10.3864C18.5968 10.3297 19.0319 10.2918 19.4859 10.2918H25.7077C25.9285 10.2918 26.1075 10.4708 26.1075 10.6917V17.8379C26.1075 18.0587 25.9285 18.2377 25.7077 18.2377H18.7705C18.476 18.2377 18.2373 18.4764 18.2373 18.7708V25.6891C18.2373 25.9099 18.0583 26.0889 17.8375 26.0889H10.6913C10.4705 26.0889 10.2914 25.9099 10.2914 25.6891V21.9296C10.2914 21.6944 10.0896 21.5107 9.85484 21.5248C9.59157 21.5406 9.3306 21.5485 9.06174 21.5485H7.83203V28.1296C7.83203 28.3505 8.01105 28.5295 8.23188 28.5295H20.278C20.4988 28.5295 20.6778 28.3505 20.6778 28.1296V21.0781C20.6778 20.8572 20.8568 20.6782 21.0777 20.6782H27.996C28.2904 20.6782 28.5291 20.4395 28.5291 20.1451V8.38445C28.5291 8.09001 28.2904 7.85132 27.996 7.85132H19.467Z" fill="url(#paint1_linear_32908_36884)"/>
<path d="M40.3321 6.43335H35.108C34.7571 6.43335 34.4727 6.71782 34.4727 7.06876V21.5277C34.4727 21.8787 34.7571 22.1631 35.108 22.1631H40.3321C45.3227 22.1631 48.5309 18.9589 48.5309 14.2982C48.5309 9.61514 45.3227 6.43335 40.3321 6.43335ZM38.6 18.8469C38.4247 18.8469 38.2824 18.7046 38.2824 18.5292V10.0225C38.2824 9.84703 38.4247 9.70479 38.6 9.70479H40.0871C42.9609 9.70479 44.6541 11.4077 44.6541 14.2982C44.6541 17.1888 42.9609 18.8469 40.0871 18.8469H38.6Z" fill="black"/>
<path d="M66.0565 14.2534C66.0565 9.52549 62.5142 6.20923 58.0583 6.20923C53.6247 6.20923 50.0156 9.52549 50.0156 14.2534C50.0156 18.9813 53.6247 22.32 58.0583 22.32C62.4918 22.32 66.0565 18.9813 66.0565 14.2534ZM53.9145 14.2534C53.9145 11.4525 55.5186 9.68235 58.0583 9.68235C60.5536 9.68235 62.1797 11.4525 62.1797 14.2534C62.1797 17.0095 60.5536 18.8245 58.0583 18.8245C55.5186 18.8245 53.9145 17.0095 53.9145 14.2534Z" fill="black"/>
<path d="M77.2434 22.1631H81.8996L75.617 14.1414L81.677 6.43335H77.1987L71.9855 13.3347V6.43335H68.1758V22.1631H71.9855V15.2169L77.2434 22.1631Z" fill="black"/>
<path d="M82.8633 9.50311H87.0071V22.1631H90.8168V9.50311H94.9606V6.43335H82.8633V9.50311Z" fill="black"/>
<path d="M112.268 14.2534C112.268 9.52549 108.725 6.20923 104.269 6.20923C99.836 6.20923 96.2266 9.52549 96.2266 14.2534C96.2266 18.9813 99.836 22.32 104.269 22.32C108.703 22.32 112.268 18.9813 112.268 14.2534ZM100.125 14.2534C100.125 11.4525 101.729 9.68235 104.269 9.68235C106.765 9.68235 108.391 11.4525 108.391 14.2534C108.391 17.0095 106.765 18.8245 104.269 18.8245C101.729 18.8245 100.125 17.0095 100.125 14.2534Z" fill="black"/>
<path d="M122.652 11.5422C122.652 12.7746 121.984 13.514 120.558 13.514H118.196V9.61514H120.558C121.984 9.61514 122.652 10.377 122.652 11.5422ZM114.387 6.43335V22.1631H118.196V16.2253H119.11L122.363 22.1631H126.662L123.053 15.934C125.459 15.2169 126.529 13.3571 126.529 11.3853C126.529 8.65164 124.613 6.43335 120.781 6.43335H114.387Z" fill="black"/>
<path d="M139.591 22.1631H143.623L137.965 6.43335H133.553L127.895 22.1631H131.882L132.818 19.3847H138.655L139.591 22.1631ZM137.675 16.4269H133.821L135.737 10.6683L137.675 16.4269Z" fill="black"/>
<path d="M153.97 17.368C153.97 18.4884 153.235 19.071 151.965 19.071H149.158V15.5979H151.92C153.19 15.5979 153.97 16.2477 153.97 17.368ZM153.591 11.1612C153.591 12.2368 152.9 12.797 151.653 12.797H149.158V9.50311H151.653C152.9 9.50311 153.591 10.0857 153.591 11.1612ZM157.824 17.8834C157.824 16.0908 156.643 14.4775 154.816 14.0966C156.331 13.6484 157.468 12.4161 157.468 10.5114C157.468 8.02426 155.574 6.43335 152.388 6.43335H145.348V22.1631H152.633C155.93 22.1631 157.824 20.4826 157.824 17.8834Z" fill="black"/>
<path d="M159.387 14.2757C159.387 18.9812 162.639 22.275 167.251 22.275C170.972 22.275 173.779 20.1911 174.67 16.7853H170.482C169.836 18.1297 168.655 18.8019 167.206 18.8019C164.867 18.8019 163.263 17.0541 163.263 14.2757C163.263 11.4972 164.867 9.74941 167.206 9.74941C168.655 9.74941 169.836 10.4216 170.482 11.7661H174.67C173.779 8.36017 170.972 6.25391 167.251 6.25391C162.639 6.25391 159.387 9.57017 159.387 14.2757Z" fill="black"/>
</g>
<defs>
<linearGradient id="paint0_linear_32908_36884" x1="3.61128e-07" y1="7.79412" x2="34.5588" y2="28.5294" gradientUnits="userSpaceOnUse">
<stop stop-color="#1F9976"/>
<stop offset="1" stop-color="#6DB141"/>
</linearGradient>
<linearGradient id="paint1_linear_32908_36884" x1="-0.000322127" y1="7.79417" x2="34.5585" y2="28.5295" gradientUnits="userSpaceOnUse">
<stop stop-color="#1F9976"/>
<stop offset="1" stop-color="#6DB141"/>
</linearGradient>
<clipPath id="clip0_32908_36884">
<rect width="175" height="28.5294" fill="white"/>
</clipPath>
</defs>
</svg>
