<svg width="252" height="34" viewBox="0 0 252 34" fill="none" xmlns="http://www.w3.org/2000/svg"><rect x="0.5" y="0.5" width="251" height="32.6206" rx="16.3103" stroke="white"></rect><path d="M25.1351 1H235.19C243.921 1 251 8.07848 251 16.8102V16.8102C251 25.542 243.921 32.6204 235.19 32.6204H25.1351V1Z" fill="#326E74"></path><path d="M21.7014 1H16.0504C7.73861 1 1 8.0788 1 16.8102C1 25.5416 7.73861 32.6204 16.0504 32.6204H21.7014V19.3339V14.3164V1Z" fill="#1C9E88"></path><path d="M58.321 16.6285C58.321 19.7503 57.473 22.1421 55.7768 23.8038C54.0807 25.4655 51.6327 26.2964 48.4299 26.2964H43.3036V7.32413H48.9865C51.9416 7.32413 54.2352 8.14277 55.8701 9.777C57.505 11.4112 58.321 13.6961 58.321 16.6285ZM54.3342 16.7324C54.3342 12.6575 52.6177 10.6201 49.1847 10.6201H47.1417V22.973H48.7883C52.4866 22.973 54.3342 20.8928 54.3342 16.7324Z" fill="white"></path><path d="M77.0946 16.3928C77.0946 19.2947 76.3764 21.5248 74.94 23.083C73.5036 24.6412 71.4475 25.4203 68.7662 25.4203C66.0849 25.4203 64.0289 24.6412 62.5925 23.083C61.1561 21.5248 60.4379 19.2863 60.4379 16.3674C60.4379 13.4486 61.1589 11.2214 62.5981 9.68289C64.0373 8.14444 66.1018 7.37379 68.7888 7.37379C71.4757 7.37379 73.5317 8.15008 74.9569 9.69983C76.3792 11.2496 77.0918 13.4825 77.0918 16.39L77.0946 16.3928ZM64.3274 16.3928C64.3274 18.3519 64.6992 19.8254 65.4399 20.8191C66.1807 21.8099 67.2904 22.3067 68.7662 22.3067C71.7263 22.3067 73.205 20.3364 73.205 16.3957C73.205 12.4549 71.732 10.4705 68.7888 10.4705C67.3129 10.4705 66.2004 10.9673 65.4512 11.9638C64.702 12.9602 64.3274 14.4366 64.3274 16.3957V16.3928Z" fill="white"></path><path d="M94.3444 25.4263H90.0138L85.3007 17.8283L83.6902 18.9867V25.4234H79.8751V7.39381H83.6902V15.645L85.1907 13.5227L90.063 7.39381H94.2952L88.0179 15.3721L94.3415 25.4234L94.3444 25.4263Z" fill="white"></path><path d="M104.11 25.3145H100.302V10.4914H95.4266V7.31525H108.987V10.4914H104.112V25.3145H104.11Z" fill="white"></path><path d="M121.656 25.4324H111.308V7.4245H121.656V10.5529H115.118V14.5076H121.202V17.6361H115.118V22.2808H121.656V25.4353V25.4324Z" fill="white"></path><path d="M128.83 18.5267V25.4362H125.02V7.42748H130.256C132.698 7.42748 134.503 7.874 135.675 8.76415C136.847 9.65429 137.434 11.0084 137.434 12.8234C137.434 13.8817 137.142 14.8241 136.56 15.6504C135.979 16.4768 135.154 17.1234 134.09 17.5902C136.794 21.6379 138.553 24.2532 139.375 25.4362H135.148L130.858 18.5267H128.83ZM128.83 15.4214H130.06C131.263 15.4214 132.154 15.2213 132.727 14.8183C133.3 14.4153 133.586 13.7832 133.586 12.922C133.586 12.0609 133.294 11.4607 132.707 11.0982C132.122 10.7358 131.214 10.556 129.984 10.556H128.83V15.4214Z" fill="white"></path><path d="M145.811 1.91344H235.13C243.376 1.91344 250.061 8.59867 250.061 16.8453V16.8453C250.061 25.092 243.376 31.7772 235.129 31.7772H145.811V1.91344Z" fill="white"></path><path d="M168.506 16.4889C168.506 19.385 167.79 21.6106 166.356 23.1657C164.923 24.7208 162.871 25.4983 160.195 25.4983C157.519 25.4983 155.467 24.7208 154.033 23.1657C152.6 21.6106 151.883 19.3765 151.883 16.4635C151.883 13.5505 152.603 11.3278 154.039 9.79238C155.475 8.257 157.536 7.48791 160.217 7.48791C162.899 7.48791 164.951 8.26264 166.373 9.80929C167.792 11.3559 168.504 13.5843 168.504 16.4861L168.506 16.4889ZM155.768 16.4889C155.768 18.444 156.139 19.9146 156.878 20.9063C157.617 21.8951 158.725 22.3909 160.198 22.3909C163.152 22.3909 164.627 20.4245 164.627 16.4917C164.627 12.5589 163.16 10.5784 160.223 10.5784C158.75 10.5784 157.64 11.0742 156.892 12.0687C156.144 13.0632 155.77 14.5366 155.77 16.4917L155.768 16.4889Z" fill="#326E74"></path><path d="M187.003 25.5087H182.158L174.338 11.8807H174.228C174.384 14.2883 174.462 16.0056 174.462 17.0325V25.5116H171.056V7.49174H175.863L183.669 20.9863H183.756C183.634 18.6454 183.571 16.989 183.571 16.0201V7.49174H187V25.5087H187.003Z" fill="#326E74"></path><path d="M190.822 25.4797V7.48244H194.63V22.3271H201.912V25.4797H190.822Z" fill="#326E74"></path><path d="M204.28 25.4815V7.48293H208.088V25.4815H204.28Z" fill="#326E74"></path><path d="M227.765 25.5087H222.92L215.099 11.8807H214.989C215.146 14.2883 215.224 16.0056 215.224 17.0325V25.5116H211.817V7.49174H216.625L224.43 20.9863H224.517C224.396 18.6454 224.332 16.989 224.332 16.0201V7.49174H227.762V25.5087H227.765Z" fill="#326E74"></path><path d="M241.594 25.496H231.246V7.48809H241.594V10.6165H235.056V14.5712H241.14V17.6996H235.056V22.3444H241.594V25.4989V25.496Z" fill="#326E74"></path><path d="M25.1351 13.6484H37.2025V19.9727H25.1351V32.6201H19.101V19.9727H7.03357V13.6484H19.101V1H25.1351V13.6484Z" fill="white"></path></svg>